<svg xmlns="http://www.w3.org/2000/svg" xmlns:xlink="http://www.w3.org/1999/xlink" width="1024" zoomAndPan="magnify" viewBox="0 0 768 383.999986" height="512" preserveAspectRatio="xMidYMid meet" version="1.0"><defs><g/></defs><rect x="-76.8" width="921.6" fill="#ffffff" y="-38.399999" height="460.799983" fill-opacity="1"/><rect x="-76.8" width="921.6" fill="#243553" y="-38.399999" height="460.799983" fill-opacity="1"/><g fill="#f8f4e1" fill-opacity="1"><g transform="translate(59.616346, 108.717743)"><g><path d="M 10.609375 -89.484375 L 31.3125 -89.484375 L 31.3125 -16.875 L 76.1875 -16.875 L 76.1875 0 L 10.609375 0 Z M 10.609375 -89.484375 "/></g></g></g><g fill="#f8f4e1" fill-opacity="1"><g transform="translate(136.30614, 108.717743)"><g><path d="M 41.921875 1.015625 C 34.679688 1.015625 28.1875 -0.492188 22.4375 -3.515625 C 16.6875 -6.535156 12.191406 -10.726562 8.953125 -16.09375 C 5.710938 -21.46875 4.09375 -27.566406 4.09375 -34.390625 C 4.09375 -41.203125 5.710938 -47.289062 8.953125 -52.65625 C 12.191406 -58.03125 16.6875 -62.226562 22.4375 -65.25 C 28.1875 -68.28125 34.679688 -69.796875 41.921875 -69.796875 C 49.171875 -69.796875 55.648438 -68.28125 61.359375 -65.25 C 67.066406 -62.226562 71.539062 -58.03125 74.78125 -52.65625 C 78.019531 -47.289062 79.640625 -41.203125 79.640625 -34.390625 C 79.640625 -27.566406 78.019531 -21.46875 74.78125 -16.09375 C 71.539062 -10.726562 67.066406 -6.535156 61.359375 -3.515625 C 55.648438 -0.492188 49.171875 1.015625 41.921875 1.015625 Z M 41.921875 -15.34375 C 47.035156 -15.34375 51.234375 -17.066406 54.515625 -20.515625 C 57.796875 -23.960938 59.4375 -28.585938 59.4375 -34.390625 C 59.4375 -40.179688 57.796875 -44.800781 54.515625 -48.25 C 51.234375 -51.707031 47.035156 -53.4375 41.921875 -53.4375 C 36.816406 -53.4375 32.597656 -51.707031 29.265625 -48.25 C 25.941406 -44.800781 24.28125 -40.179688 24.28125 -34.390625 C 24.28125 -28.585938 25.941406 -23.960938 29.265625 -20.515625 C 32.597656 -17.066406 36.816406 -15.34375 41.921875 -15.34375 Z M 41.921875 -15.34375 "/></g></g></g><g fill="#f8f4e1" fill-opacity="1"><g transform="translate(220.025856, 108.717743)"><g><path d="M 9.203125 -68.765625 L 29.140625 -68.765625 L 29.140625 0 L 9.203125 0 Z M 8.6875 -78.359375 C 6.300781 -78.359375 4.316406 -79.164062 2.734375 -80.78125 C 1.160156 -82.40625 0.375 -84.492188 0.375 -87.046875 C 0.375 -89.609375 1.160156 -91.695312 2.734375 -93.3125 C 4.316406 -94.9375 6.300781 -95.75 8.6875 -95.75 C 11.070312 -95.75 13.070312 -94.9375 14.6875 -93.3125 C 16.3125 -91.695312 17.125 -89.609375 17.125 -87.046875 C 17.125 -84.492188 16.3125 -82.40625 14.6875 -80.78125 C 13.070312 -79.164062 11.070312 -78.359375 8.6875 -78.359375 Z M 29.65625 -78.359375 C 27.257812 -78.359375 25.253906 -79.164062 23.640625 -80.78125 C 22.023438 -82.40625 21.21875 -84.492188 21.21875 -87.046875 C 21.21875 -89.609375 22.023438 -91.695312 23.640625 -93.3125 C 25.253906 -94.9375 27.257812 -95.75 29.65625 -95.75 C 32.039062 -95.75 34.019531 -94.9375 35.59375 -93.3125 C 37.164062 -91.695312 37.953125 -89.609375 37.953125 -87.046875 C 37.953125 -84.492188 37.164062 -82.40625 35.59375 -80.78125 C 34.019531 -79.164062 32.039062 -78.359375 29.65625 -78.359375 Z M 29.65625 -78.359375 "/></g></g></g><g fill="#f8f4e1" fill-opacity="1"><g transform="translate(258.498578, 108.717743)"><g><path d="M 42.4375 1.015625 C 35.113281 1.015625 28.53125 -0.492188 22.6875 -3.515625 C 16.851562 -6.535156 12.296875 -10.726562 9.015625 -16.09375 C 5.734375 -21.46875 4.09375 -27.566406 4.09375 -34.390625 C 4.09375 -41.203125 5.734375 -47.289062 9.015625 -52.65625 C 12.296875 -58.03125 16.851562 -62.226562 22.6875 -65.25 C 28.53125 -68.28125 35.113281 -69.796875 42.4375 -69.796875 C 49.675781 -69.796875 56 -68.28125 61.40625 -65.25 C 66.820312 -62.226562 70.769531 -57.90625 73.25 -52.28125 L 57.78125 -43.96875 C 54.195312 -50.28125 49.039062 -53.4375 42.3125 -53.4375 C 37.113281 -53.4375 32.804688 -51.726562 29.390625 -48.3125 C 25.984375 -44.90625 24.28125 -40.265625 24.28125 -34.390625 C 24.28125 -28.503906 25.984375 -23.859375 29.390625 -20.453125 C 32.804688 -17.046875 37.113281 -15.34375 42.3125 -15.34375 C 49.125 -15.34375 54.28125 -18.492188 57.78125 -24.796875 L 73.25 -16.359375 C 70.769531 -10.910156 66.820312 -6.648438 61.40625 -3.578125 C 56 -0.515625 49.675781 1.015625 42.4375 1.015625 Z M 42.4375 1.015625 "/></g></g></g><path stroke-linecap="round" transform="matrix(0.75, -0.000000000000000279, 0.000000000000000279, 0.75, 216.486823, 293.389839)" fill="none" stroke-linejoin="miter" d="M 18.501946 18.501049 L 591.5697 18.501049 " stroke="#f8f4e1" stroke-width="37" stroke-opacity="1" stroke-miterlimit="4"/><g fill="#f24b4b" fill-opacity="1"><g transform="translate(200.238284, 317.223052)"><g><path d="M 269.65625 -148.25 C 269.375 -147.507812 269.085938 -146.773438 268.796875 -146.046875 C 265.929688 -138.585938 262.835938 -131.253906 259.515625 -124.046875 C 242.398438 -88.453125 224.007812 -54.023438 204.34375 -20.765625 C 197.957031 -10.035156 191.425781 0.507812 184.75 10.875 C 178.070312 21.238281 171.351562 31.5625 164.59375 41.84375 C 163 44.257812 161.382812 46.675781 159.75 49.09375 C 159.664062 49.289062 159.582031 49.429688 159.5 49.515625 C 159.125 50.253906 158.691406 50.867188 158.203125 51.359375 C 157.710938 51.847656 157.054688 52.09375 156.234375 52.09375 C 155.867188 52.09375 155.476562 52 155.0625 51.8125 C 154.65625 51.632812 154.332031 51.40625 154.09375 51.125 C 153.882812 50.875 153.738281 50.472656 153.65625 49.921875 C 153.570312 49.367188 153.613281 48.925781 153.78125 48.59375 C 154.882812 46.21875 156.113281 43.96875 157.46875 41.84375 C 160.5 36.882812 163.550781 31.925781 166.625 26.96875 C 172.394531 17.75 178.066406 8.515625 183.640625 -0.734375 C 196.015625 -21.378906 207.832031 -42.453125 219.09375 -63.953125 C 230.351562 -85.460938 241.351562 -107.191406 252.09375 -129.140625 C 256.382812 -137.617188 259.925781 -146.691406 262.71875 -156.359375 C 263.289062 -158.035156 263.726562 -159.773438 264.03125 -161.578125 C 264.34375 -163.390625 264.5 -165.253906 264.5 -167.171875 C 264.207031 -171.304688 262.445312 -173.109375 259.21875 -172.578125 C 256.34375 -172.003906 253.640625 -171.101562 251.109375 -169.875 C 245.085938 -166.96875 239.144531 -163.753906 233.28125 -160.234375 C 201.820312 -141.148438 173.171875 -117.457031 147.328125 -89.15625 C 146.960938 -88.695312 146.554688 -88.242188 146.109375 -87.796875 C 137.171875 -78.085938 128.3125 -68.296875 119.53125 -58.421875 C 110.75 -48.554688 102.21875 -38.398438 93.9375 -27.953125 C 92.21875 -25.785156 90.414062 -23.757812 88.53125 -21.875 C 86.53125 -19.78125 84.132812 -18.960938 81.34375 -19.421875 C 80.15625 -19.578125 79.179688 -20.15625 78.421875 -21.15625 C 77.671875 -22.164062 77.375 -23.347656 77.53125 -24.703125 C 78.101562 -28.390625 78.925781 -31.953125 80 -35.390625 C 83.3125 -46.285156 86.832031 -57.035156 90.5625 -67.640625 C 91.09375 -69.285156 91.582031 -70.863281 92.03125 -72.375 C 93.019531 -76.34375 94.414062 -80.007812 96.21875 -83.375 C 96.21875 -83.457031 96.175781 -83.5 96.09375 -83.5 C 95.644531 -83.738281 95.191406 -83.929688 94.734375 -84.078125 C 94.285156 -84.222656 93.835938 -84.070312 93.390625 -83.625 C 91.753906 -81.820312 90.175781 -79.9375 88.65625 -77.96875 C 76.207031 -61.09375 63.878906 -44.070312 51.671875 -26.90625 C 39.460938 -9.75 27.539062 7.695312 15.90625 25.4375 C 14.925781 27.15625 13.832031 28.554688 12.625 29.640625 C 11.414062 30.722656 9.804688 31.082031 7.796875 30.71875 C 6.898438 30.46875 6.207031 29.910156 5.71875 29.046875 C 5.226562 28.191406 5.125 27.359375 5.40625 26.546875 C 6.46875 24.128906 7.632812 21.832031 8.90625 19.65625 C 12.507812 13.4375 16.070312 7.210938 19.59375 0.984375 C 26.6875 -11.347656 33.710938 -23.738281 40.671875 -36.1875 C 51.484375 -55.269531 61.128906 -75.359375 69.609375 -96.453125 C 72.929688 -104.566406 75.632812 -113.085938 77.71875 -122.015625 C 78.863281 -126.765625 79.359375 -131.722656 79.203125 -136.890625 C 78.660156 -145.160156 75.910156 -151.078125 70.953125 -154.640625 C 66.003906 -158.203125 59.492188 -159.890625 51.421875 -159.703125 C 43.359375 -159.523438 34.410156 -157.878906 24.578125 -154.765625 C 14.742188 -151.648438 4.664062 -147.53125 -5.65625 -142.40625 C -15.976562 -137.289062 -25.929688 -131.640625 -35.515625 -125.453125 C -45.097656 -119.273438 -53.625 -113.007812 -61.09375 -106.65625 C -68.570312 -100.3125 -74.398438 -94.351562 -78.578125 -88.78125 C -82.960938 -82.632812 -86.691406 -75.875 -89.765625 -68.5 C -91.316406 -64.976562 -92.21875 -61.148438 -92.46875 -57.015625 C -92.550781 -56.191406 -92.957031 -55.578125 -93.6875 -55.171875 C -94.425781 -54.765625 -95.25 -54.640625 -96.15625 -54.796875 C -97.582031 -55.253906 -98.484375 -56.382812 -98.859375 -58.1875 C -99.097656 -60.5625 -98.910156 -62.734375 -98.296875 -64.703125 C -96.953125 -69.648438 -95.148438 -74.335938 -92.890625 -78.765625 C -88.753906 -86.503906 -82.46875 -94.40625 -74.03125 -102.46875 C -65.59375 -110.539062 -55.757812 -118.273438 -44.53125 -125.671875 C -33.3125 -133.066406 -21.597656 -139.660156 -9.390625 -145.453125 C 2.804688 -151.253906 14.738281 -155.757812 26.40625 -158.96875 C 38.082031 -162.1875 48.597656 -163.628906 57.953125 -163.296875 C 67.316406 -162.972656 74.703125 -160.40625 80.109375 -155.59375 C 85.523438 -150.78125 88.148438 -143.191406 87.984375 -132.828125 C 87.691406 -126.148438 86.644531 -119.800781 84.84375 -113.78125 C 82.226562 -104.9375 79.207031 -96.382812 75.78125 -88.125 C 72.363281 -79.875 68.726562 -71.796875 64.875 -63.890625 C 63.6875 -61.429688 63.429688 -60.234375 64.109375 -60.296875 C 64.785156 -60.359375 65.800781 -61.289062 67.15625 -63.09375 C 72.03125 -69.570312 76.90625 -75.960938 81.78125 -82.265625 C 85.09375 -86.484375 88.46875 -90.617188 91.90625 -94.671875 C 92.363281 -95.242188 92.816406 -95.800781 93.265625 -96.34375 C 95.234375 -98.757812 97.609375 -100.375 100.390625 -101.1875 C 102.484375 -101.632812 104.242188 -101.160156 105.671875 -99.765625 C 107.109375 -98.378906 107.601562 -96.296875 107.15625 -93.515625 C 107.070312 -93.222656 106.988281 -92.9375 106.90625 -92.65625 C 106.164062 -89.050781 105.304688 -85.546875 104.328125 -82.140625 C 101.703125 -73.828125 99 -65.578125 96.21875 -57.390625 C 94.863281 -53.171875 93.507812 -48.890625 92.15625 -44.546875 C 91.875 -43.929688 91.46875 -42.804688 90.9375 -41.171875 C 90.394531 -39.734375 89.878906 -38.316406 89.390625 -36.921875 C 88.898438 -35.535156 88.515625 -34.472656 88.234375 -33.734375 C 88.597656 -34.015625 91.929688 -37.757812 98.234375 -44.96875 C 106.796875 -54.800781 116.929688 -66.3125 128.640625 -79.5 C 140.359375 -92.6875 149.554688 -102.765625 156.234375 -109.734375 C 168.566406 -122.140625 181.5625 -133.429688 195.21875 -143.609375 C 208.882812 -153.785156 223.046875 -162.992188 237.703125 -171.234375 C 241.304688 -173.117188 245.015625 -174.816406 248.828125 -176.328125 C 249.648438 -176.617188 250.445312 -176.945312 251.21875 -177.3125 C 254.832031 -178.75 258.664062 -179.28125 262.71875 -178.90625 C 270.5 -178.175781 274.0625 -173.265625 273.40625 -164.171875 C 272.957031 -158.515625 271.707031 -153.207031 269.65625 -148.25 Z M 95.78125 -83.859375 C 95.988281 -83.703125 96.132812 -83.582031 96.21875 -83.5 C 96.21875 -83.5 96.21875 -83.457031 96.21875 -83.375 C 96.300781 -83.375 96.34375 -83.414062 96.34375 -83.5 C 96.175781 -83.582031 95.988281 -83.703125 95.78125 -83.859375 Z M 95.78125 -83.859375 "/></g></g></g><g fill="#f24b4b" fill-opacity="1"><g transform="translate(431.796603, 317.223052)"><g><path d="M 44.5625 -31.296875 C 45.53125 -30.742188 45.609375 -29.40625 44.796875 -27.28125 C 43.597656 -25.71875 42.320312 -24.257812 40.96875 -22.90625 C 39.625 -21.5625 38.15625 -20.359375 36.5625 -19.296875 C 36.4375 -19.296875 36.375 -19.253906 36.375 -19.171875 C 35.3125 -18.429688 34.1875 -17.796875 33 -17.265625 C 23.207031 -13.742188 18.207031 -15.8125 18 -23.46875 C 14.03125 -20.03125 11.367188 -17.921875 10.015625 -17.140625 C 6.773438 -15.210938 3.273438 -14.351562 -0.484375 -14.5625 C -3.273438 -14.726562 -5.171875 -15.578125 -6.171875 -17.109375 C -7.179688 -18.648438 -7.085938 -20.726562 -5.890625 -23.34375 C -4.085938 -27.476562 -1.53125 -31.164062 1.78125 -34.40625 C 5.675781 -38.007812 10 -40.894531 14.75 -43.0625 C 17.289062 -44.332031 19.953125 -44.828125 22.734375 -44.546875 C 25.515625 -44.378906 27.191406 -42.800781 27.765625 -39.8125 C 28.015625 -38.914062 27.789062 -38.117188 27.09375 -37.421875 C 26.195312 -36.597656 25.15625 -36.410156 23.96875 -36.859375 C 23.882812 -36.859375 23.769531 -36.878906 23.625 -36.921875 C 23.476562 -36.960938 23.363281 -37.023438 23.28125 -37.109375 C 22.09375 -38.742188 20.894531 -39.425781 19.6875 -39.15625 C 18.476562 -38.894531 17.195312 -38.359375 15.84375 -37.546875 C 9.539062 -33.859375 4.851562 -28.71875 1.78125 -22.125 C 1.613281 -21.832031 1.507812 -21.507812 1.46875 -21.15625 C 1.425781 -20.8125 1.53125 -20.539062 1.78125 -20.34375 C 2.519531 -20.09375 3.335938 -20.140625 4.234375 -20.484375 C 5.140625 -20.835938 6.039062 -21.351562 6.9375 -22.03125 C 7.84375 -22.707031 8.601562 -23.269531 9.21875 -23.71875 C 9.300781 -23.84375 9.34375 -23.90625 9.34375 -23.90625 C 12.332031 -26.394531 15.257812 -28.953125 18.125 -31.578125 C 19.394531 -32.929688 20.972656 -33.691406 22.859375 -33.859375 C 25.554688 -33.859375 26.679688 -32.648438 26.234375 -30.234375 C 25.984375 -29.328125 25.71875 -28.425781 25.4375 -27.53125 C 24.375 -23.632812 24.332031 -21.347656 25.3125 -20.671875 C 26.289062 -19.992188 27.796875 -19.992188 29.828125 -20.671875 C 31.859375 -21.347656 33.882812 -22.640625 35.90625 -24.546875 C 37.9375 -26.453125 39.644531 -28.191406 41.03125 -29.765625 C 42.425781 -31.347656 43.601562 -31.859375 44.5625 -31.296875 Z M 44.5625 -31.296875 "/></g></g></g><g fill="#f24b4b" fill-opacity="1"><g transform="translate(472.529738, 317.223052)"><g><path d="M 29.484375 -37.71875 C 29.117188 -34.894531 27.789062 -33.050781 25.5 -32.1875 C 23.207031 -31.332031 22.457031 -32.460938 23.25 -35.578125 C 24.050781 -38.691406 22.648438 -39.476562 19.046875 -37.9375 C 15.441406 -36.40625 12.472656 -34.472656 10.140625 -32.140625 C 6.535156 -28.453125 3.335938 -24.476562 0.546875 -20.21875 C 0.265625 -19.84375 0.0390625 -19.535156 -0.125 -19.296875 C -0.945312 -18.109375 -1.765625 -16.976562 -2.578125 -15.90625 C -3.109375 -15.175781 -3.734375 -14.71875 -4.453125 -14.53125 C -5.171875 -14.34375 -5.898438 -14.3125 -6.640625 -14.4375 C -7.335938 -14.519531 -7.867188 -14.785156 -8.234375 -15.234375 C -8.597656 -15.679688 -8.640625 -16.210938 -8.359375 -16.828125 C -7.910156 -17.941406 -7.378906 -19.070312 -6.765625 -20.21875 C -3.078125 -27.050781 0.671875 -33.910156 4.484375 -40.796875 C 4.566406 -40.878906 4.609375 -40.960938 4.609375 -41.046875 C 5.140625 -42.109375 5.773438 -43.085938 6.515625 -43.984375 C 7.328125 -44.890625 8.265625 -45.257812 9.328125 -45.09375 C 10.398438 -44.925781 11.117188 -44.289062 11.484375 -43.1875 C 11.941406 -41.757812 12.332031 -40.953125 12.65625 -40.765625 C 12.976562 -40.578125 13.71875 -40.710938 14.875 -41.171875 C 17.332031 -42.066406 19.726562 -42.695312 22.0625 -43.0625 C 24.394531 -43.4375 26.304688 -43.347656 27.796875 -42.796875 C 29.296875 -42.242188 29.859375 -40.550781 29.484375 -37.71875 Z M 29.484375 -37.71875 "/></g></g></g><g fill="#f24b4b" fill-opacity="1"><g transform="translate(503.24854, 317.223052)"><g><path d="M 24.421875 -25.890625 C 22.234375 -23.296875 19.644531 -20.910156 16.65625 -18.734375 C 13.664062 -16.566406 10.285156 -15.101562 6.515625 -14.34375 C 2.742188 -13.582031 -0.179688 -13.859375 -2.265625 -15.171875 C -4.359375 -16.484375 -4.769531 -19.394531 -3.5 -23.90625 C -1.863281 -28.570312 0.382812 -33.015625 3.25 -37.234375 C 3.90625 -38.128906 4.847656 -38.765625 6.078125 -39.140625 C 6.984375 -39.335938 7.773438 -39.179688 8.453125 -38.671875 C 9.128906 -38.160156 9.382812 -37.515625 9.21875 -36.734375 C 8.601562 -35.265625 7.925781 -33.789062 7.1875 -32.3125 C 6.445312 -30.84375 5.957031 -29.878906 5.71875 -29.421875 C 4.28125 -26.804688 3.273438 -24.066406 2.703125 -21.203125 C 2.703125 -19.554688 4.890625 -19.453125 9.265625 -20.890625 C 13.648438 -22.328125 17.910156 -24.957031 22.046875 -28.78125 C 26.191406 -32.613281 28.171875 -33.738281 27.984375 -32.15625 C 27.796875 -30.582031 26.609375 -28.492188 24.421875 -25.890625 Z M 13.703125 -46.453125 C 13.492188 -46.285156 13.070312 -46.085938 12.4375 -45.859375 C 11.800781 -45.640625 11.125 -45.476562 10.40625 -45.375 C 9.695312 -45.269531 9.132812 -45.378906 8.71875 -45.703125 C 8.3125 -46.035156 8.289062 -46.691406 8.65625 -47.671875 C 9.3125 -49.390625 10 -50.894531 10.71875 -52.1875 C 11.4375 -53.476562 12.367188 -54.90625 13.515625 -56.46875 C 14.253906 -57.15625 15.050781 -57.53125 15.90625 -57.59375 C 16.769531 -57.65625 17.488281 -57.429688 18.0625 -56.921875 C 18.632812 -56.410156 18.800781 -55.703125 18.5625 -54.796875 C 17.65625 -51.566406 16.035156 -48.785156 13.703125 -46.453125 Z M 13.703125 -46.453125 "/></g></g></g><g fill="#f24b4b" fill-opacity="1"><g transform="translate(527.209193, 317.223052)"><g><path d="M 54.25 -32.9375 C 54.582031 -33.007812 54.953125 -33.003906 55.359375 -32.921875 C 55.765625 -32.847656 56.070312 -32.664062 56.28125 -32.375 C 56.519531 -31.925781 56.503906 -31.472656 56.234375 -31.015625 C 55.972656 -30.566406 55.578125 -30.222656 55.046875 -29.984375 C 51.359375 -28.179688 47.648438 -26.316406 43.921875 -24.390625 C 39.546875 -22.140625 35.144531 -19.890625 30.71875 -17.640625 C 30.0625 -17.390625 29.425781 -17.082031 28.8125 -16.71875 C 27.832031 -16.175781 26.847656 -15.679688 25.859375 -15.234375 C 23.609375 -14.128906 22.113281 -12.410156 21.375 -10.078125 C 19.414062 -4.503906 17.347656 1.023438 15.171875 6.515625 C 12.390625 13.847656 8.910156 20.832031 4.734375 27.46875 C 2.398438 31.269531 -0.425781 34.644531 -3.75 37.59375 C -7.71875 41.320312 -12.265625 43.679688 -17.390625 44.671875 C -25.867188 46.390625 -34.039062 45.832031 -41.90625 43 C -45.132812 41.851562 -47.914062 40.015625 -50.25 37.484375 C -53.40625 34.078125 -53.550781 30.429688 -50.6875 26.546875 C -49.414062 24.898438 -48.003906 23.363281 -46.453125 21.9375 C -42.960938 18.78125 -39.191406 15.953125 -35.140625 13.453125 C -20.597656 4.160156 -5.671875 -4.394531 9.640625 -12.21875 C 9.722656 -12.21875 9.765625 -12.21875 9.765625 -12.21875 C 11.367188 -13.039062 12.945312 -13.90625 14.5 -14.8125 C 14.75 -15.007812 15.097656 -15.445312 15.546875 -16.125 C 15.992188 -16.800781 16.328125 -17.476562 16.546875 -18.15625 C 16.773438 -18.832031 16.710938 -19.320312 16.359375 -19.625 C 16.015625 -19.9375 15.171875 -19.785156 13.828125 -19.171875 C 13.296875 -18.960938 12.800781 -18.738281 12.34375 -18.5 C 11.15625 -17.925781 9.96875 -17.410156 8.78125 -16.953125 C 1.78125 -15.273438 -1.71875 -17.976562 -1.71875 -25.0625 C -1.550781 -29.320312 -0.269531 -33.160156 2.125 -36.578125 C 4.519531 -40.003906 7.578125 -42.6875 11.296875 -44.625 C 15.023438 -46.570312 19.0625 -47.320312 23.40625 -46.875 C 23.851562 -46.875 24.304688 -46.8125 24.765625 -46.6875 C 25.953125 -46.53125 27.148438 -46.453125 28.359375 -46.453125 C 29.566406 -46.453125 30.804688 -46.71875 32.078125 -47.25 C 33.421875 -47.78125 34.429688 -47.625 35.109375 -46.78125 C 35.785156 -45.945312 35.898438 -44.851562 35.453125 -43.5 C 34.265625 -40.957031 33.097656 -38.375 31.953125 -35.75 C 31.128906 -34.15625 30.347656 -32.5 29.609375 -30.78125 C 28.796875 -28.976562 28 -27.132812 27.21875 -25.25 C 26.113281 -22.789062 25.945312 -21.5 26.71875 -21.375 C 27.5 -21.257812 28.832031 -21.691406 30.71875 -22.671875 C 30.96875 -22.753906 31.234375 -22.835938 31.515625 -22.921875 C 34.953125 -24.554688 38.414062 -26.171875 41.90625 -27.765625 C 44.363281 -28.867188 46.800781 -30 49.21875 -31.15625 C 50.851562 -31.882812 52.53125 -32.476562 54.25 -32.9375 Z M 10.5625 0.0625 C 11.832031 -3.539062 12.375 -5.90625 12.1875 -7.03125 C 12.007812 -8.15625 11.222656 -8.453125 9.828125 -7.921875 C 8.429688 -7.390625 6.609375 -6.410156 4.359375 -4.984375 C 2.929688 -4.078125 1.351562 -3.171875 -0.375 -2.265625 C -10.726562 3.335938 -20.820312 9.335938 -30.65625 15.734375 C -35 18.265625 -38.867188 21.332031 -42.265625 24.9375 C -45.867188 28.789062 -45.75 32.210938 -41.90625 35.203125 C -39.644531 37.003906 -37.132812 38.265625 -34.375 38.984375 C -31.613281 39.703125 -28.570312 40.0625 -25.25 40.0625 C -21.363281 40.34375 -17.757812 39.625 -14.4375 37.90625 C -11.125 36.1875 -8.050781 33.609375 -5.21875 30.171875 C -3.539062 27.910156 -1.925781 25.570312 -0.375 23.15625 C 4.132812 15.789062 7.78125 8.09375 10.5625 0.0625 Z M 6.515625 -21.6875 C 7.578125 -21.238281 9.117188 -21.628906 11.140625 -22.859375 C 13.171875 -24.085938 15.25 -25.773438 17.375 -27.921875 C 19.507812 -30.078125 21.203125 -32.28125 22.453125 -34.53125 C 23.703125 -36.78125 24.019531 -38.6875 23.40625 -40.25 C 23.238281 -40.695312 22.972656 -41.101562 22.609375 -41.46875 C 21.953125 -42.25 21.222656 -42.617188 20.421875 -42.578125 C 19.628906 -42.535156 18.78125 -42.390625 17.875 -42.140625 C 14.882812 -40.953125 12.242188 -38.914062 9.953125 -36.03125 C 7.660156 -33.144531 6.132812 -30.285156 5.375 -27.453125 C 4.613281 -24.628906 4.992188 -22.707031 6.515625 -21.6875 Z M 6.515625 -21.6875 "/></g></g></g><g fill="#f24b4b" fill-opacity="1"><g transform="translate(579.676916, 317.223052)"><g><path d="M 48.65625 -30.65625 C 49.3125 -29.832031 48.492188 -28.335938 46.203125 -26.171875 C 43.910156 -24.003906 41.472656 -22.179688 38.890625 -20.703125 C 36.304688 -19.234375 33.316406 -17.757812 29.921875 -16.28125 C 27.671875 -15.300781 25.273438 -14.972656 22.734375 -15.296875 C 20.191406 -15.628906 18.921875 -17.164062 18.921875 -19.90625 C 18.921875 -22.644531 19.554688 -25.367188 20.828125 -28.078125 C 22.097656 -30.859375 22.375 -32.289062 21.65625 -32.375 C 20.9375 -32.457031 19.453125 -31.78125 17.203125 -30.34375 C 11.347656 -26.5 5.898438 -22.097656 0.859375 -17.140625 C -0.492188 -15.503906 -2.210938 -14.601562 -4.296875 -14.4375 C -5.359375 -14.4375 -6.1875 -14.773438 -6.78125 -15.453125 C -7.382812 -16.128906 -7.457031 -16.859375 -7 -17.640625 C -3.394531 -24.304688 0.25 -30.898438 3.9375 -37.421875 C 4.75 -38.765625 5.976562 -39.601562 7.625 -39.9375 C 8.3125 -40.0625 8.953125 -39.847656 9.546875 -39.296875 C 10.140625 -38.742188 10.4375 -38.117188 10.4375 -37.421875 C 10.363281 -36.765625 10.097656 -35.984375 9.640625 -35.078125 C 9.441406 -34.546875 9.25 -34.035156 9.0625 -33.546875 C 8.875 -33.054688 8.8125 -32.644531 8.875 -32.3125 C 8.9375 -31.988281 9.191406 -31.890625 9.640625 -32.015625 C 10.253906 -32.335938 10.867188 -32.679688 11.484375 -33.046875 C 13.046875 -33.953125 14.539062 -34.816406 15.96875 -35.640625 C 17.238281 -36.367188 18.570312 -37.019531 19.96875 -37.59375 C 21.363281 -38.175781 22.816406 -38.566406 24.328125 -38.765625 C 26.785156 -38.929688 28.523438 -38.378906 29.546875 -37.109375 C 30.578125 -35.835938 30.703125 -34.078125 29.921875 -31.828125 C 29.097656 -29.773438 28.238281 -27.75 27.34375 -25.75 C 26.238281 -23.863281 26.050781 -22.425781 26.78125 -21.4375 C 27.519531 -20.457031 30.941406 -21.585938 37.046875 -24.828125 L 41.65625 -27.53125 C 46 -30.3125 48.332031 -31.351562 48.65625 -30.65625 Z M 48.65625 -30.65625 "/></g></g></g><g fill="#f24b4b" fill-opacity="1"><g transform="translate(624.710696, 317.223052)"><g><path d="M 48.234375 -32.03125 C 48.765625 -30.988281 47.878906 -29.390625 45.578125 -27.234375 C 43.285156 -25.085938 39.253906 -22.484375 33.484375 -19.421875 C 31.316406 -18.515625 29.738281 -17.796875 28.75 -17.265625 C 27.769531 -16.734375 27.050781 -16.054688 26.59375 -15.234375 C 26.144531 -14.421875 25.65625 -13.148438 25.125 -11.421875 C 24.675781 -10.148438 24.082031 -8.453125 23.34375 -6.328125 C 22.363281 -3.703125 21.378906 -1 20.390625 1.78125 C 18.585938 7.476562 16.445312 13.097656 13.96875 18.640625 C 11.5 24.191406 8.296875 29.035156 4.359375 33.171875 C 0.429688 37.304688 -4.625 40.050781 -10.8125 41.40625 C -17.039062 42.59375 -23.0625 42.773438 -28.875 41.953125 C -34.6875 41.140625 -40.378906 39.523438 -45.953125 37.109375 C -48.203125 36.085938 -50.234375 34.734375 -52.046875 33.046875 C -55.035156 29.984375 -55.257812 26.546875 -52.71875 22.734375 C -51.363281 20.847656 -49.785156 19.148438 -47.984375 17.640625 C -44.378906 14.722656 -40.609375 12.054688 -36.671875 9.640625 C -29.347656 5.222656 -21.851562 1.171875 -14.1875 -2.515625 C -6.53125 -6.203125 1.207031 -9.765625 9.03125 -13.203125 C 9.5625 -13.453125 10.15625 -13.722656 10.8125 -14.015625 C 12.945312 -14.992188 15.140625 -15.972656 17.390625 -16.953125 C 18.941406 -17.523438 19.984375 -18.570312 20.515625 -20.09375 C 20.679688 -20.625 20.722656 -21.113281 20.640625 -21.5625 C 20.554688 -21.851562 20.398438 -22.019531 20.171875 -22.0625 C 19.953125 -22.101562 19.703125 -22.039062 19.421875 -21.875 C 18.640625 -21.425781 17.835938 -20.914062 17.015625 -20.34375 C 16.566406 -20.09375 16.078125 -19.785156 15.546875 -19.421875 C 12.722656 -17.773438 9.796875 -17.054688 6.765625 -17.265625 C 1.960938 -17.265625 -0.472656 -19.414062 -0.546875 -23.71875 C -0.628906 -27.238281 -0.03125 -30.578125 1.25 -33.734375 C 2.539062 -36.890625 4.378906 -39.859375 6.765625 -42.640625 C 7.003906 -42.921875 7.347656 -43.15625 7.796875 -43.34375 C 8.253906 -43.53125 8.707031 -43.664062 9.15625 -43.75 C 9.238281 -43.75 9.34375 -43.789062 9.46875 -43.875 C 10.363281 -43.945312 11.054688 -43.71875 11.546875 -43.1875 C 12.035156 -42.65625 12.140625 -41.984375 11.859375 -41.171875 C 11.328125 -40.015625 10.796875 -38.84375 10.265625 -37.65625 C 9.804688 -36.757812 9.351562 -35.859375 8.90625 -34.953125 C 7.101562 -31.429688 6.285156 -27.75 6.453125 -23.90625 C 6.535156 -23.082031 6.894531 -22.484375 7.53125 -22.109375 C 8.164062 -21.742188 8.890625 -21.75 9.703125 -22.125 C 12.117188 -23.101562 14.226562 -24.492188 16.03125 -26.296875 C 20.90625 -30.722656 24.921875 -35.820312 28.078125 -41.59375 C 28.523438 -42.414062 29.046875 -43.113281 29.640625 -43.6875 C 30.234375 -44.257812 31.023438 -44.585938 32.015625 -44.671875 C 33.285156 -44.785156 34.253906 -44.503906 34.921875 -43.828125 C 35.597656 -43.160156 35.796875 -42.273438 35.515625 -41.171875 C 34.367188 -37.484375 33.160156 -33.835938 31.890625 -30.234375 C 31.804688 -29.941406 31.703125 -29.671875 31.578125 -29.421875 C 31.253906 -28.609375 30.945312 -27.75 30.65625 -26.84375 C 30.375 -25.945312 30.234375 -25.160156 30.234375 -24.484375 C 30.234375 -23.804688 30.519531 -23.46875 31.09375 -23.46875 C 33.34375 -23.914062 36.628906 -25.71875 40.953125 -28.875 C 45.273438 -32.03125 47.703125 -33.082031 48.234375 -32.03125 Z M 16.03125 -7.375 C 16.03125 -7.582031 16.09375 -7.765625 16.21875 -7.921875 C 16.46875 -8.367188 16.613281 -8.859375 16.65625 -9.390625 C 16.695312 -9.929688 16.550781 -10.488281 16.21875 -11.0625 C 15.9375 -11.0625 15.710938 -11.0625 15.546875 -11.0625 C 14.972656 -10.9375 14.460938 -10.789062 14.015625 -10.625 C 13.109375 -10.257812 12.207031 -9.851562 11.3125 -9.40625 C 4.09375 -6.082031 -3.117188 -2.660156 -10.328125 0.859375 C -17.535156 4.378906 -24.597656 8.128906 -31.515625 12.109375 C -35.734375 14.523438 -39.707031 17.347656 -43.4375 20.578125 C -46.46875 23.285156 -47.921875 25.648438 -47.796875 27.671875 C -47.671875 29.703125 -45.890625 31.535156 -42.453125 33.171875 C -34.628906 37.234375 -26.210938 38.894531 -17.203125 38.15625 C -11.054688 37.539062 -6.066406 35.222656 -2.234375 31.203125 C 1.585938 27.191406 4.71875 22.390625 7.15625 16.796875 C 9.59375 11.210938 11.710938 5.632812 13.515625 0.0625 C 14.296875 -2.5625 15.132812 -5.039062 16.03125 -7.375 Z M 16.03125 -7.375 "/></g></g></g></svg>